<svg xmlns="http://www.w3.org/2000/svg" xmlns:xlink="http://www.w3.org/1999/xlink" width="51.184" height="51.017" viewBox="0 0 51.184 51.017"><a xlink:href="http://google.com" target="_blank"><circle fill="#F93D3D" cx="25.785" cy="25.493" r="25.494"/><path fill="#FFF" d="M35.047 10.395H16.521a5.84 5.84 0 0 0-5.835 5.834v18.529a5.84 5.84 0 0 0 5.835 5.835h18.526a5.844 5.844 0 0 0 5.838-5.835V16.229a5.843 5.843 0 0 0-5.838-5.834zm1.675 3.482l.667-.004v5.118l-5.1.017-.019-5.118 4.452-.013zm-15.246 8.519a5.314 5.314 0 0 1 4.31-2.216 5.313 5.313 0 0 1 4.629 2.722 5.26 5.26 0 0 1 .687 2.591 5.323 5.323 0 0 1-5.315 5.315 5.321 5.321 0 0 1-5.316-5.315c0-.941.253-1.823.687-2.592.097-.173.202-.343.318-.505zm16.467 12.362a2.897 2.897 0 0 1-2.896 2.894H16.521a2.896 2.896 0 0 1-2.893-2.894V22.396h4.507a8.14 8.14 0 0 0-.292.852 8.162 8.162 0 0 0-.315 2.246c0 4.554 3.705 8.258 8.258 8.258 4.552 0 8.257-3.705 8.257-8.258 0-.778-.113-1.531-.318-2.246a8.22 8.22 0 0 0-.292-.852h4.509v12.362z"/></a></svg>