<svg xmlns="http://www.w3.org/2000/svg" xmlns:xlink="http://www.w3.org/1999/xlink" width="51.184" height="51.017" viewBox="0 0 51.184 51.017"><a xlink:href="http://google.com" target="_blank"><circle fill="#02B77B" cx="25.444" cy="25.443" r="25.444"/><path fill="#FFF" d="M40.515 17.681c-1.108.484-2.299.81-3.551.957a6.12 6.12 0 0 0 2.72-3.368 12.47 12.47 0 0 1-3.929 1.479 6.214 6.214 0 0 0-4.512-1.922c-3.415 0-6.183 2.727-6.183 6.088 0 .477.055.939.159 1.386a17.646 17.646 0 0 1-12.744-6.36 6 6 0 0 0-.838 3.06c0 2.112 1.094 3.975 2.75 5.066a6.258 6.258 0 0 1-2.801-.761v.075c0 .78.152 1.522.423 2.207a6.175 6.175 0 0 0 4.538 3.765 6.213 6.213 0 0 1-2.794.103c.789 2.417 3.071 4.178 5.776 4.227a12.524 12.524 0 0 1-7.68 2.606c-.5 0-.991-.028-1.477-.084a17.722 17.722 0 0 0 9.479 2.734c9.667 0 15.607-6.697 17.175-13.645a16.738 16.738 0 0 0 .403-4.462 12.421 12.421 0 0 0 3.086-3.151z"/></a></svg>